<svg width="148" height="148" viewBox="0 0 148 148" fill="none" xmlns="http://www.w3.org/2000/svg">
<rect y="80.4346" width="105" height="105" rx="27" transform="rotate(-50 0 80.4346)" fill="black"/>
<rect x="46" y="46" width="55" height="55" rx="10" fill="white"/>
<rect x="51" y="51" width="45" height="45" rx="10" fill="black"/>
<rect x="56" y="56" width="35" height="35" rx="10" fill="white"/>
<rect x="61" y="61" width="25" height="25" rx="5" fill="black"/>
<rect x="66" y="66" width="15" height="15" rx="5" fill="white"/>
<rect x="71" y="71" width="5" height="5" rx="2.5" fill="black"/>
<rect x="71" y="71" width="5" height="5" rx="2.5" fill="black"/>
<rect x="115" y="71" width="5" height="5" rx="2.5" fill="black"/>
<rect x="115" y="71" width="5" height="5" rx="2.5" fill="white"/>
<rect x="115" y="71" width="5" height="5" rx="2.5" fill="black"/>
<rect x="115" y="71" width="5" height="5" rx="2.5" fill="white"/>
<rect x="115" y="71" width="5" height="5" rx="2.5" fill="black"/>
<rect x="115" y="71" width="5" height="5" rx="2.5" fill="white"/>
<rect x="71" y="27" width="5" height="5" rx="2.5" fill="black"/>
<rect x="71" y="27" width="5" height="5" rx="2.5" fill="white"/>
<rect x="71" y="115" width="5" height="5" rx="2.5" fill="black"/>
<rect x="71" y="115" width="5" height="5" rx="2.5" fill="white"/>
<rect x="27" y="71" width="5" height="5" rx="2.5" fill="black"/>
<rect x="27" y="71" width="5" height="5" rx="2.5" fill="white"/>
</svg>
